<svg width="24" height="24" viewBox="0 0 24 24" fill="none" xmlns="http://www.w3.org/2000/svg">
<path d="M19.8001 19.5C17.7001 21.05 14.5501 22 12.0001 22C8.35005 22 5.10005 20.55 2.60005 18.3C2.40005 18.1 2.60005 17.9 2.80005 18C5.50005 19.55 8.55005 20.45 11.9501 20.45C14.2501 20.45 17.1501 19.95 19.5001 18.95C19.8501 18.85 20.1501 19.25 19.8001 19.5ZM20.5501 18.45C20.3001 18.1 18.8001 18.3 18.1501 18.35C17.9501 18.35 17.9001 18.2 18.1001 18.05C19.2501 17.2 21.2001 17.45 21.4001 17.75C21.6001 18.05 21.3501 20 20.2501 20.9C20.1001 21.05 19.9001 20.95 20.0001 20.8C20.2501 20.2 20.8001 18.8 20.5501 18.45Z" fill="#FFB300"/>
<path d="M18.45 14.9C17.95 14.25 17.45 13.7 17.45 12.45V8.3C17.45 6.55 17.45 5 16.2 3.8C15.2 2.85 13.55 2.5 12.25 2.5C9.50005 2.5 7.10005 3.6 6.50005 6.7C6.45005 7.05 6.70005 7.2 6.90005 7.25L9.45005 7.55C9.70005 7.55 9.85005 7.3 9.90005 7.05C10.1 6 10.95 5.5 11.95 5.5C12.5 5.5 13.55 5.8 13.55 7V8.5C11.95 8.5 10.25 8.5 8.85005 9.1C7.20005 9.8 6.05005 11.25 6.05005 13.4C6.05005 16.15 7.75005 17.5 9.95005 17.5C11.8 17.5 12.9 17.05 14.35 15.6C14.8 16.3 15 16.7 15.85 17.45C16.05 17.55 16.3 17.55 16.45 17.4C16.95 16.95 17.9 16.1 18.45 15.65C18.7 15.45 18.65 15.15 18.45 14.9ZM13.5 11.05C13.5 12.05 13.45 14.5 11 14.5C9.50005 14.5 9.50005 13 9.50005 13C9.50005 10.75 11.6 10.5 13.5 10.5V11.05Z" fill="#37474F"/>
</svg>
